# xmcd CD database file
#
# Track frame offsets:
#	182
#	84010
#	119240
#
# Disc length: 2389 seconds
#
# Revision: 0
# Processed by: cddbd v1.5.2PL0 Copyright (c) Steve Scherf et al.
# Submitted via: CDex 1.51
#
DISCID=1d095303
DTITLE=Vangelis - Invisible Connections
DYEAR=1985
DGENRE=New Age
TTITLE0=Invisible Connections
TTITLE1=Atom Blaster
TTITLE2=Thermo Vision
EXTD=YEAR: 1985
EXTT0=
EXTT1=
EXTT2=
PLAYORDER=
